# xmcd
# Track frame offsets:
# 150
# 18916
# 29689
# 45707
# 64627
# 79592
# 95346
# 110250
# 121638
# 136086
# 153549
# 167612
# 182648
# 195050
#
# Disc length: 2846 seconds
# Revision: 2
# Processed by: cddbd v1.5.2PL0 Copyright (c) Steve Scherf et al.
# Submitted via: VisiTrax 2.11.3.279 - For more info visit www.synapsa.com
#
DISCID=9f0b1c0e
DTITLE=Slim Dusty - Makin' A Mile
DYEAR=1997
DGENRE=Australian Country
TTITLE0=My Heaven On Earth
TTITLE1=Recycled Ringer
TTITLE2=Boomaroo Flyer
TTITLE3=Star Trucker
TTITLE4=Names Upon The Wall
TTITLE5=The Lady Is A Truckie
TTITLE6=Mechanised Swaggies
TTITLE7=No Good Truckin' Man
TTITLE8=The Flood Of '95
TTITLE9=Ringers, Rigs and Drivers
TTITLE10=Big Old Mack
TTITLE11=Dead On Time
TTITLE12=Haulin' For The Double 'T'
TTITLE13=Something In The Pilliga
EXTD=1997 EMI Music Group Australia
EXTT0=
EXTT1=
EXTT2=
EXTT3=
EXTT4=
EXTT5=
EXTT6=
EXTT7=
EXTT8=
EXTT9=
EXTT10=
EXTT11=
EXTT12=
EXTT13=
PLAYORDER=
